<svg version="1.1" id="Layer_1" xmlns="http://www.w3.org/2000/svg" xmlns:xlink="http://www.w3.org/1999/xlink" x="0px" y="0px"
	 width="100%" viewBox="0 0 1024 1024" enable-background="new 0 0 1024 1024" xml:space="preserve">
<path fill="#000000" opacity="1.000000" stroke="none" 
	d="
M415.000000,228.875610 
	C424.332642,228.849243 433.179993,229.138000 441.994446,228.724854 
	C454.791168,228.125031 465.527008,232.497360 474.593414,241.226288 
	C477.060028,243.601074 479.670441,245.326736 482.968658,246.224274 
	C499.342590,250.680054 513.664185,259.532745 528.702942,266.995911 
	C546.436707,275.796509 559.118896,289.815277 572.218079,303.705658 
	C575.512878,307.199493 575.326172,312.029297 577.155579,316.096283 
	C578.038269,318.058777 575.571411,318.846436 573.953857,318.932037 
	C557.652100,319.794708 541.611328,318.948975 526.921387,310.682343 
	C521.541016,307.654572 517.964478,302.807526 514.629211,297.773071 
	C505.249969,283.615448 496.424011,269.088776 486.552094,255.443802 
	C480.461151,257.553619 481.157196,250.051514 476.974182,249.369003 
	C480.885437,255.702240 484.785889,262.018036 488.686371,268.333801 
	C485.381226,267.248199 484.144318,264.329010 482.256805,262.070862 
	C479.854645,259.197083 477.541016,258.862488 475.472137,262.033875 
	C472.046082,267.285645 467.427094,267.357391 461.881256,266.390198 
	C447.233673,263.835693 432.414490,263.933655 417.604279,264.439331 
	C402.820862,264.944061 388.081970,266.340881 373.239410,264.693604 
	C359.827301,263.205048 346.300232,264.085052 332.819702,264.056488 
	C319.702362,264.028687 306.585754,263.683167 293.468445,263.505310 
	C292.313782,263.489655 291.120392,263.534485 290.005981,263.803741 
	C282.951233,265.508179 276.341980,268.674683 270.929413,273.191620 
	C263.645294,279.270416 260.012817,287.969666 259.730621,297.407715 
	C259.203461,315.036560 259.264038,332.684723 259.200104,350.325317 
	C259.060638,388.820251 259.033203,427.315674 258.886261,465.810577 
	C258.811340,485.436249 258.075806,505.072693 258.520599,524.684265 
	C259.408569,563.835083 258.524719,602.992371 259.367401,642.132446 
	C259.663818,655.898987 258.549835,669.765076 261.120758,683.454346 
	C261.542328,685.699097 260.606171,687.722107 259.360535,689.556580 
	C256.991974,693.044800 255.428680,696.861755 254.722946,700.937073 
	C250.009399,702.422180 250.009399,702.422180 239.382568,694.270020 
	C244.394135,702.768494 250.973495,707.571289 258.828522,710.489685 
	C265.641113,713.020752 272.416992,714.261841 280.123932,712.403809 
	C287.066620,710.729980 294.701019,711.929626 302.030243,711.853882 
	C326.021149,711.605774 350.011749,711.183228 374.003052,711.137207 
	C435.145752,711.019958 496.288757,711.061035 557.431641,711.057739 
	C585.746887,711.056152 614.062866,710.987061 642.377258,711.152100 
	C671.844604,711.323853 701.310547,711.740173 730.777039,712.057190 
	C731.419556,712.064087 732.061218,712.162170 732.697998,712.609375 
	C636.608765,715.029968 540.502502,713.710693 444.407074,714.779114 
	C466.810974,714.779114 489.214844,714.785400 511.618744,714.777954 
	C585.612671,714.753357 659.606689,714.769226 733.600464,714.641602 
	C743.391785,714.624756 753.308289,715.044312 762.846252,712.081238 
	C784.960327,705.211304 798.585754,686.858521 798.622131,663.427551 
	C798.758057,575.934998 798.774963,488.442230 798.827332,400.949524 
	C798.835999,386.451202 798.906982,371.951630 798.739807,357.455048 
	C798.646851,349.400970 796.409546,342.036102 790.109497,336.354858 
	C792.493103,340.705841 795.771790,344.613434 795.102417,350.170044 
	C794.408325,355.932648 787.405884,364.068665 782.368835,366.635559 
	C772.281006,371.776245 761.943298,370.616089 751.249573,370.369995 
	C724.610474,369.757019 697.950439,370.107910 671.294922,370.394775 
	C657.196228,370.546539 642.997559,370.767365 628.898438,369.230377 
	C616.671692,367.897522 605.669250,362.472778 594.150269,358.800751 
	C578.285278,353.743347 565.148071,343.473755 550.934143,335.310211 
	C540.575684,329.360962 530.135071,323.386261 521.202515,315.204315 
	C514.107361,308.705383 509.199005,300.732574 505.362976,291.874329 
	C507.066437,294.147552 509.014679,296.278442 510.433044,298.717468 
	C518.763062,313.041901 531.805603,319.660278 547.660950,321.687317 
	C565.558167,323.975433 583.564453,323.465668 601.542114,323.595459 
	C610.768250,323.662048 619.995178,323.607147 629.221741,323.607147 
	C629.224487,323.157135 629.227295,322.707092 629.230103,322.257080 
	C618.904358,322.257080 608.578613,322.257080 598.252869,322.257080 
	C612.412842,318.483337 626.759949,319.835724 641.005432,319.850800 
	C681.800781,319.893951 722.595337,320.501587 763.390991,320.624298 
	C775.169189,320.659729 784.828796,324.964752 792.725952,333.320648 
	C796.777283,337.607300 802.197388,339.074249 806.960571,341.863586 
	C815.947266,347.126282 826.251831,349.943817 834.297241,356.915894 
	C840.572632,362.354034 847.058838,367.539337 854.468750,371.465820 
	C859.991516,374.392303 864.306335,378.979675 868.328369,383.543427 
	C873.667297,389.601379 879.574524,394.828003 886.157166,399.396790 
	C890.332031,402.294434 893.860046,405.776123 895.730591,410.630920 
	C898.111511,416.810364 896.294739,421.746857 890.377747,424.860199 
	C885.235779,427.565796 879.754395,429.581909 875.228394,433.462372 
	C868.979309,438.820068 864.177002,445.022552 862.483948,453.230347 
	C861.576294,457.630219 860.255615,462.083313 860.263977,466.510254 
	C860.304443,488.010315 855.882324,509.302856 857.158752,530.821777 
	C859.369629,568.094482 859.066895,605.407593 859.441650,642.712280 
	C859.603333,658.808289 858.916199,674.875610 858.222229,690.947205 
	C858.129456,693.095154 858.383789,695.269348 858.607178,697.417908 
	C859.604553,707.009338 855.403503,713.723572 847.264893,718.401794 
	C837.169861,724.204651 827.137085,730.115540 817.065308,735.958801 
	C813.409729,738.079651 810.223938,740.789917 807.720642,744.142761 
	C805.314636,747.365417 802.221802,749.368469 798.553833,750.752075 
	C779.043884,758.111023 758.991455,760.509705 738.190979,758.561523 
	C725.952087,757.415100 713.608582,757.836548 701.273315,758.467773 
	C690.497314,759.019226 679.652344,758.052673 668.838623,758.077576 
	C652.857422,758.114380 636.884949,757.843994 620.893799,758.874939 
	C610.480591,759.546265 599.963928,758.477417 589.492126,758.405762 
	C564.706299,758.236145 539.907898,758.641663 515.136230,757.989563 
	C485.168304,757.200500 455.220917,758.581909 425.260010,758.023193 
	C406.796356,757.678955 388.318878,757.943848 369.849579,758.131348 
	C364.871979,758.181824 359.876251,758.759827 354.933228,759.425354 
	C344.389435,760.845032 334.940125,759.471680 325.392822,753.591309 
	C315.024811,747.205627 304.757446,740.490356 293.770172,735.029968 
	C289.404572,732.860413 285.554688,729.340332 282.029572,725.867188 
	C277.036072,720.947266 271.433685,717.896484 264.592010,716.044006 
	C250.583588,712.250916 239.929214,703.892578 233.834183,690.336243 
	C230.690887,683.345032 229.815109,675.946533 229.820633,668.399170 
	C229.865753,606.737610 229.846710,545.075867 230.016342,483.414612 
	C230.203796,415.278900 230.564346,347.143677 230.863022,279.008301 
	C230.933487,262.934692 237.106567,250.723297 249.702744,239.722809 
	C259.418304,231.238052 269.533813,229.911957 280.573212,229.773468 
	C325.212189,229.213562 369.857208,229.133957 415.000000,228.875610 
M420.498413,714.102234 
	C413.535980,714.102234 406.573547,714.102234 399.611115,714.102234 
	C399.614014,714.240417 399.616882,714.378662 399.619781,714.516846 
	C411.895416,714.516846 424.171051,714.516846 436.446716,714.516846 
	C436.445740,714.377136 436.444794,714.237427 436.443848,714.097717 
	C431.461517,714.097717 426.479218,714.097717 420.498413,714.102234 
M234.176468,643.448242 
	C234.218811,644.146667 234.261154,644.845093 234.303497,645.543518 
	C234.390244,645.537109 234.477005,645.530640 234.563751,645.524231 
	C234.563751,635.119202 234.563751,624.714172 234.563751,613.637329 
	C234.318100,614.622437 234.171173,614.937500 234.170898,615.252625 
	C234.162842,624.398926 234.169403,633.545227 234.176468,643.448242 
z"/>
</svg>